<?xml version="1.0" encoding="utf-8"?>
<!-- Generator: Adobe Illustrator 21.0.0, SVG Export Plug-In . SVG Version: 6.00 Build 0)  -->
<svg version="1.1" xmlns="http://www.w3.org/2000/svg" xmlns:xlink="http://www.w3.org/1999/xlink" x="0px" y="0px"
	 viewBox="0 0 560.2 649.7" style="enable-background:new 0 0 560.2 649.7;" xml:space="preserve">
<style type="text/css">
	.st0{opacity:5.000000e-02;fill:#1F1C1C;enable-background:new    ;}
	.st1{stroke:#000000;stroke-width:9;stroke-linecap:round;stroke-linejoin:round;stroke-miterlimit:10;}
	.st2{fill:#FBAA1B;}
	.st3{fill:#F495BE;}
	.st4{fill:#FCEE23;}
	.st5{fill:#FFFFFF;}
</style>
<g id="MR">
	<path d="M238.5,299.1h-29.7l-13.6-36.2c-0.1-0.6-0.4-1.4-0.7-2.4c-0.3-1-0.7-2.2-1.2-3.6l0.2,6.7v35.6h-27.3V197.4h28.1
		c12.4,0,21.6,2.4,27.8,7.3c7.8,6.2,11.7,15.1,11.7,26.6c0,12.3-5.2,20.8-15.7,25.5L238.5,299.1z M193.7,244.5h1.8
		c3.2,0,5.8-1.2,7.9-3.6c2.1-2.4,3.2-5.5,3.2-9.2c0-7.6-4-11.4-11.9-11.4h-1V244.5z"/>
	<path d="M159.4,299.1h-28.7l-2-46.4l-0.9-18.5c-0.3,3.6-0.7,6.9-1.1,10.2c-0.4,3.2-0.9,6.4-1.4,9.4l-8.6,45.3H94.3l-7.4-45.4
		c-0.4-2.6-1-7.2-1.8-13.6c-0.1-1-0.3-2.9-0.6-5.9L83.9,253l-2.4,46.1H52.2l11.9-101.7h34.2l5.7,34.2c0.5,2.8,0.9,5.9,1.3,9.2
		c0.4,3.3,0.7,6.9,1,10.7c0.6-6.5,1.4-12.2,2.4-17.3l7-36.8h33.9L159.4,299.1z"/>
</g>
<g id="LEGS">
	<ellipse id="shadow_1_" class="st0" cx="297" cy="576.6" rx="191.1" ry="12.6"/>
	<path id="front" d="M354.7,439.8l70,11.6l17.5,2.9l7.4,1.2l-1.1,9l-9,70.4l-2.2,17.6l-1.1,8.8l-0.6,4.4l-0.3,2.2l-0.1,1.1l-0.1,0.5
		c-0.1,0.3,0.1-0.5-0.1,0.7c9,9.9,2.5,2.7,4.6,4.9l0.1,0l0.3,0L475,570l-29.5-3.1l1.2-2.9l3.2-8.3l6.5-16.5l25.9-66l6.5-16.5
		l1.6-4.2c1.3-4.3,1.6-9,0.9-13.5c-1.4-9.1-7.2-17.5-15.6-22.1l-36.2-15.8l-0.8-0.4c-24.2,18.1-54.2,31.1-89.4,37.8
		C351.1,439.1,352.9,439.5,354.7,439.8z"/>
	<path id="back" d="M185.1,433.3l-2.5,15.8l-2.6,16.4l-0.6,3.8l-9-1.4l-65.8-10.3l-32.9-5.2l-4.1-0.6l-0.5-0.1l-0.3,0l-0.1,0
		c-2.1,1.1,4.5-2.4-4.6,2.4c-0.1,0.2,0,0.1,0,0.1l0,0.1l-0.2,1l-0.3,2.1l-1.3,8.2L57.9,482l6.8-15.2l3-6.8l1.7,0.8l30.4,13.5
		l60.8,27.1l15.2,6.8l1.9,0.8l0.9,0.4l0.1,0l0.2,0.1l0.3,0.1l0.6,0.2l1.3,0.4c3.4,0.9,7,1.3,10.6,1.1c7.2-0.4,14.3-3.2,20-8
		c2.8-2.4,5.4-5.2,7.3-8.5c1-1.6,1.9-3.3,2.6-5l0.5-1.3l0.2-0.6l0.1-0.2l0.4-0.9l3.4-7.6l6.8-15.2l9.1-20.4h-29.7
		C201.9,443.5,192.4,439.7,185.1,433.3z"/>
</g>
<g id="Layer_9">
	<g>
		<path class="st1" d="M171.2,140.6c-0.1,1.6-0.3,3.2-0.6,4.8c-0.4,2-1,3.9-1.8,5.8c-4.1,9.9-12.8,16.7-22.6,18.8h18
			c9.8-2.1,18.5-8.8,22.6-18.8c0.8-1.9,1.4-3.9,1.8-5.8c0.3-1.6,0.5-3.2,0.6-4.8c0,0,0-0.1,0-0.1c0-0.8,0-1.6,0-2.3c0,0,0-0.1,0-0.1
			c-0.1-2.3-0.4-4.7-1-6.9c0-0.1,0-0.1,0-0.2c-0.2-0.7-0.4-1.4-0.6-2.1c0-0.1,0-0.1-0.1-0.2c-0.2-0.7-0.5-1.4-0.8-2.1c0,0,0,0,0,0
			c-0.3-0.7-0.6-1.4-1-2c0,0,0-0.1-0.1-0.1c-0.3-0.6-0.7-1.3-1.1-1.9c-0.1-0.1-0.1-0.2-0.2-0.3c-0.4-0.6-0.8-1.2-1.2-1.8
			c-0.1-0.1-0.1-0.2-0.2-0.3c-0.4-0.6-0.9-1.2-1.4-1.7c0,0,0,0,0-0.1c-0.5-0.5-1-1.1-1.5-1.6c-0.1-0.1-0.1-0.1-0.2-0.2
			c-0.5-0.5-1-1-1.6-1.5c-0.1-0.1-0.2-0.2-0.3-0.3c-0.5-0.5-1.1-0.9-1.7-1.3c-0.1-0.1-0.2-0.1-0.3-0.2c-0.6-0.4-1.2-0.9-1.9-1.3
			c0.4-0.2,0.8-0.5,1.2-0.8c0.1-0.1,0.3-0.2,0.4-0.3c0.2-0.2,0.5-0.3,0.7-0.5c0.2-0.1,0.3-0.2,0.5-0.4c0.2-0.2,0.4-0.3,0.6-0.5
			c0.2-0.1,0.3-0.3,0.5-0.4c0.2-0.2,0.4-0.3,0.6-0.5c0.2-0.1,0.3-0.3,0.5-0.4c0.2-0.2,0.4-0.3,0.5-0.5c0.2-0.2,0.3-0.3,0.5-0.5
			c0.2-0.2,0.3-0.3,0.5-0.5c0.2-0.2,0.3-0.3,0.5-0.5c0.2-0.2,0.3-0.3,0.5-0.5c0.1-0.2,0.3-0.3,0.4-0.5c0.1-0.2,0.3-0.3,0.4-0.5
			c0.1-0.2,0.3-0.4,0.4-0.5c0.1-0.2,0.3-0.3,0.4-0.5c0.1-0.2,0.3-0.4,0.4-0.6c0.1-0.2,0.2-0.3,0.4-0.5c0.1-0.2,0.3-0.4,0.4-0.6
			c0.1-0.2,0.2-0.3,0.3-0.5c0.1-0.2,0.2-0.4,0.4-0.6c0.1-0.2,0.2-0.3,0.3-0.5c0.1-0.2,0.2-0.4,0.4-0.7c0.1-0.2,0.2-0.3,0.3-0.5
			c0.1-0.2,0.2-0.5,0.3-0.7c0.1-0.2,0.2-0.3,0.2-0.5c0.1-0.2,0.2-0.5,0.3-0.7c0.1-0.2,0.1-0.3,0.2-0.5c0.1-0.2,0.2-0.5,0.3-0.7
			c0.1-0.2,0.1-0.3,0.2-0.5c0.1-0.3,0.2-0.5,0.3-0.8c0.1-0.2,0.1-0.3,0.2-0.5c0.1-0.3,0.2-0.5,0.2-0.8c0-0.2,0.1-0.3,0.1-0.5
			c0.1-0.3,0.1-0.6,0.2-0.8c0-0.1,0.1-0.3,0.1-0.4c0.1-0.3,0.1-0.6,0.2-0.9c0-0.1,0-0.3,0.1-0.4c0.1-0.3,0.1-0.6,0.1-0.9
			c0-0.1,0-0.2,0-0.4c0-0.3,0.1-0.6,0.1-1c0-0.1,0-0.2,0-0.3c0-0.3,0.1-0.7,0.1-1c0-0.1,0-0.2,0-0.2c0-0.4,0-0.7,0-1.1
			c0,0,0-0.1,0-0.1c0-3.5-0.5-7.1-1.7-10.6c-0.2-0.5-0.4-1-0.6-1.6c-0.1-0.3-0.3-0.6-0.4-0.9c-2.9-6.7-7.8-11.8-13.7-15.1
			c6.9-5.2,15.6-8.3,24.9-8.3h-18c-9.4,0-18,3.1-24.9,8.3c5.9,3.3,10.8,8.4,13.7,15.1c0.1,0.3,0.3,0.6,0.4,0.9
			c0.2,0.5,0.4,1,0.6,1.6c1.2,3.5,1.7,7.1,1.7,10.6c0,0,0,0.1,0,0.1c0,0.4,0,0.7,0,1.1c0,0.1,0,0.2,0,0.2c0,0.3,0,0.7-0.1,1
			c0,0.1,0,0.2,0,0.3c0,0.3-0.1,0.6-0.1,1c0,0.1,0,0.2,0,0.4c0,0.3-0.1,0.6-0.1,0.9c0,0.1,0,0.3-0.1,0.4c-0.1,0.3-0.1,0.6-0.2,0.9
			c0,0.1-0.1,0.3-0.1,0.4c-0.1,0.3-0.1,0.6-0.2,0.8c0,0.2-0.1,0.3-0.1,0.5c-0.1,0.3-0.2,0.5-0.2,0.8c0,0.2-0.1,0.3-0.2,0.5
			c-0.1,0.3-0.2,0.5-0.3,0.8c-0.1,0.2-0.1,0.3-0.2,0.5c-0.1,0.2-0.2,0.5-0.3,0.7c-0.1,0.2-0.1,0.3-0.2,0.5c-0.1,0.2-0.2,0.5-0.3,0.7
			c-0.1,0.2-0.2,0.3-0.2,0.5c-0.1,0.2-0.2,0.5-0.3,0.7c-0.1,0.2-0.2,0.3-0.3,0.5c-0.1,0.2-0.2,0.4-0.4,0.7c-0.1,0.2-0.2,0.3-0.3,0.5
			c-0.1,0.2-0.2,0.4-0.4,0.6c-0.1,0.2-0.2,0.3-0.3,0.5c-0.1,0.2-0.3,0.4-0.4,0.6c-0.1,0.2-0.2,0.3-0.4,0.5c-0.1,0.2-0.3,0.4-0.4,0.6
			c-0.1,0.2-0.3,0.3-0.4,0.5c-0.1,0.2-0.3,0.4-0.4,0.5c-0.1,0.2-0.3,0.3-0.4,0.5c-0.1,0.2-0.3,0.3-0.4,0.5c-0.1,0.2-0.3,0.3-0.5,0.5
			c-0.1,0.2-0.3,0.3-0.5,0.5c-0.2,0.2-0.3,0.3-0.5,0.5c-0.2,0.2-0.3,0.3-0.5,0.5c-0.2,0.2-0.4,0.3-0.5,0.5c-0.2,0.1-0.3,0.3-0.5,0.4
			c-0.2,0.2-0.4,0.3-0.6,0.5c-0.2,0.1-0.3,0.3-0.5,0.4c-0.2,0.2-0.4,0.3-0.6,0.5c-0.2,0.1-0.3,0.2-0.5,0.4c-0.2,0.2-0.5,0.3-0.7,0.5
			c-0.1,0.1-0.3,0.2-0.4,0.3c-0.4,0.3-0.8,0.5-1.2,0.8c0.6,0.4,1.3,0.8,1.9,1.3c0.1,0.1,0.2,0.1,0.3,0.2c0.6,0.4,1.1,0.9,1.7,1.3
			c0.1,0.1,0.2,0.2,0.3,0.3c0.5,0.5,1.1,1,1.6,1.5c0.1,0.1,0.1,0.1,0.2,0.2c0.5,0.5,1,1,1.5,1.6c0,0,0,0,0,0.1
			c0.5,0.6,0.9,1.1,1.4,1.7c0.1,0.1,0.1,0.2,0.2,0.3c0.4,0.6,0.8,1.2,1.2,1.8c0.1,0.1,0.1,0.2,0.2,0.3c0.4,0.6,0.7,1.2,1.1,1.9
			c0,0,0,0.1,0.1,0.1c0.3,0.7,0.7,1.4,1,2c0,0,0,0,0,0c0.3,0.7,0.6,1.4,0.8,2.1c0,0.1,0,0.1,0.1,0.2c0.2,0.7,0.4,1.4,0.6,2.1
			c0,0.1,0,0.1,0,0.2c0.6,2.3,0.9,4.6,1,6.9c0,0,0,0.1,0,0.1C171.2,139,171.2,139.8,171.2,140.6
			C171.2,140.6,171.2,140.6,171.2,140.6z"/>
		<path class="st1" d="M163.9,434.5c6.8-1.4,13-5,17.7-10.3c0.5-0.6,1-1.2,1.4-1.8c0.1-0.1,0.2-0.3,0.3-0.4c0.3-0.5,0.7-1,1-1.5
			c0.1-0.2,0.3-0.4,0.4-0.6c0.3-0.5,0.6-1,0.8-1.4c0.1-0.2,0.2-0.4,0.3-0.6c0.4-0.7,0.7-1.4,1-2.1c6.1-14.5,0.6-31.1-12.6-39.2
			c0.4-0.3,0.9-0.6,1.3-0.8c0.1-0.1,0.3-0.2,0.4-0.3c0.3-0.2,0.6-0.4,0.9-0.6c0.2-0.1,0.3-0.2,0.5-0.4c0.3-0.2,0.5-0.4,0.8-0.6
			c0.1-0.1,0.3-0.2,0.4-0.4c0.3-0.2,0.5-0.4,0.7-0.7c0.1-0.1,0.3-0.2,0.4-0.4c0.3-0.3,0.6-0.6,0.9-0.9c0.1-0.1,0.1-0.1,0.2-0.2
			c0.4-0.4,0.7-0.8,1-1.1c0.1-0.1,0.1-0.2,0.2-0.2c0.3-0.3,0.5-0.6,0.8-0.9c0.1-0.1,0.2-0.3,0.3-0.4c0.2-0.3,0.4-0.6,0.6-0.8
			c0.1-0.1,0.2-0.3,0.3-0.4c0.2-0.3,0.4-0.6,0.6-0.9c0.1-0.1,0.2-0.3,0.3-0.4c0.2-0.3,0.4-0.7,0.6-1c0.1-0.1,0.1-0.2,0.2-0.3
			c0.5-0.9,0.9-1.8,1.3-2.8c0-0.1,0.1-0.2,0.1-0.3c0.2-0.4,0.3-0.7,0.4-1.1c0-0.1,0.1-0.3,0.1-0.4c0.1-0.3,0.2-0.7,0.4-1.1
			c0-0.1,0.1-0.3,0.1-0.4c0.1-0.4,0.2-0.8,0.3-1.1c0-0.1,0.1-0.2,0.1-0.3c0.1-0.5,0.2-1,0.3-1.5c1.2-5.8,0.7-12-1.6-18
			c-0.1-0.3-0.3-0.6-0.4-0.9c-0.9-2-2-4-3.2-5.7h-18c1.2,1.8,2.3,3.7,3.2,5.7c0.1,0.3,0.3,0.6,0.4,0.9c2.4,5.9,2.8,12.1,1.6,18
			c-0.1,0.5-0.2,1-0.3,1.5c0,0.1-0.1,0.2-0.1,0.3c-0.1,0.4-0.2,0.8-0.3,1.1c0,0.1-0.1,0.3-0.1,0.4c-0.1,0.4-0.2,0.7-0.4,1.1
			c0,0.1-0.1,0.3-0.1,0.4c-0.1,0.4-0.3,0.7-0.4,1.1c0,0.1-0.1,0.2-0.1,0.3c-0.4,0.9-0.8,1.9-1.3,2.8c-0.1,0.1-0.1,0.2-0.2,0.3
			c-0.2,0.3-0.4,0.7-0.6,1c-0.1,0.1-0.2,0.3-0.3,0.4c-0.2,0.3-0.4,0.6-0.6,0.9c-0.1,0.1-0.2,0.3-0.3,0.4c-0.2,0.3-0.4,0.6-0.6,0.8
			c-0.1,0.1-0.2,0.3-0.3,0.4c-0.2,0.3-0.5,0.6-0.8,0.9c-0.1,0.1-0.1,0.2-0.2,0.2c-0.3,0.4-0.7,0.8-1,1.1c-0.1,0.1-0.1,0.1-0.2,0.2
			c-0.3,0.3-0.6,0.6-0.9,0.9c-0.1,0.1-0.3,0.2-0.4,0.4c-0.2,0.2-0.5,0.5-0.7,0.7c-0.1,0.1-0.3,0.2-0.4,0.4c-0.3,0.2-0.5,0.4-0.8,0.6
			c-0.1,0.1-0.3,0.2-0.5,0.4c-0.3,0.2-0.6,0.4-0.9,0.6c-0.1,0.1-0.3,0.2-0.4,0.3c-0.4,0.3-0.9,0.6-1.3,0.8
			c13.1,8.1,18.7,24.7,12.6,39.2c-0.3,0.7-0.6,1.4-1,2.1c-0.1,0.2-0.2,0.4-0.3,0.6c-0.3,0.5-0.5,1-0.8,1.4c-0.1,0.2-0.3,0.4-0.4,0.6
			c-0.3,0.5-0.6,1-1,1.5c-0.1,0.1-0.2,0.3-0.3,0.4c-0.5,0.6-0.9,1.2-1.4,1.8c-4.6,5.3-10.9,8.9-17.7,10.3
			c7.5,10.7,19.9,17.6,34,17.6h18C183.8,452.1,171.4,445.1,163.9,434.5z"/>
	</g>
	<g>
		<path class="st2" d="M280.2,73.6h-83.4c-3.5,0-7,0.4-10.3,1.3c4.8,14.1-0.9,29.5-13.4,37.2c13.1,8.1,18.7,24.7,12.6,39.2
			c-4.1,9.9-12.8,16.7-22.6,18.8h91.2c39.6,0,71.1,9.1,91.2,26.3c17.5,15,26,36.1,26,64.4v1.1c0,27.6-8.6,49.5-25.6,65.2
			c-20.5,18.8-52.9,28.8-93.7,28.8h-64.6c-1.7,8.4-6.8,16-14.4,20.7c13.1,8.1,18.7,24.7,12.6,39.2c-4.2,10-13,16.8-22.9,18.8
			c7.5,10.7,19.9,17.6,34,17.6H278c136.3,0,215.7-81.1,215.7-190.3v-1.1C493.7,151.5,415.3,73.6,280.2,73.6z"/>
		<path d="M278,456.6h-81.2c-14.9,0-29-7.3-37.6-19.6c-0.9-1.2-1.1-2.8-0.5-4.3c0.6-1.4,1.8-2.4,3.3-2.8c8.8-1.8,16.2-7.8,19.6-16.2
			c5.1-12.2,0.5-26.7-10.8-33.6c-1.3-0.8-2.1-2.3-2.1-3.8c0-1.6,0.8-3,2.1-3.8c6.4-3.9,10.9-10.4,12.4-17.8c0.4-2.1,2.3-3.6,4.4-3.6
			h64.6c39.7,0,71.1-9.5,90.7-27.6c16-14.7,24.2-35.6,24.2-61.9v-1.1c0-27-8-46.9-24.4-61c-19.2-16.5-49.8-25.2-88.3-25.2h-91.2
			c-2.3,0-4.2-1.7-4.5-4c-0.2-2.3,1.3-4.4,3.5-4.9c8.7-1.9,16-7.9,19.4-16.1c5.1-12.2,0.5-26.7-10.8-33.6c-1.3-0.8-2.1-2.3-2.1-3.8
			s0.8-3,2.1-3.8c10.7-6.6,15.5-20,11.5-31.9c-0.4-1.2-0.3-2.5,0.3-3.6s1.6-1.9,2.8-2.2c3.7-0.9,7.5-1.4,11.4-1.4h83.4
			c66.2,0,121.7,18.6,160.5,53.7c37.7,34.2,57.6,81.8,57.6,137.8v1.1c0,27.8-5,53.9-14.9,77.5c-9.9,23.7-24.5,44.5-43.3,61.9
			C400.6,437.5,344.6,456.6,278,456.6z M170.6,436.8c6.9,6.9,16.3,10.9,26.2,10.9H278c64.3,0,118.2-18.3,155.9-53
			c36.2-33.3,55.3-79.2,55.3-132.8v-1.1c0-53.4-18.9-98.7-54.6-131.2c-37.1-33.6-90.5-51.4-154.5-51.4h-83.4c-1.6,0-3.1,0.1-4.7,0.3
			c2.3,12.4-2.1,25.3-11.4,33.6c11.2,10.1,15.2,26.6,9.2,40.9c-2,4.8-5,9.1-8.7,12.5h73.2c40.7,0,73.2,9.5,94.1,27.4
			C367,208.8,376,231,376,260.7v1.1c0,28.9-9.1,52-27.1,68.5c-21.3,19.6-54.8,30-96.8,30H191c-2,6.3-5.6,11.9-10.4,16.2
			c11.2,10.1,15.2,26.6,9.2,40.9C186.2,426.2,179.2,433.1,170.6,436.8z"/>
	</g>
	<g>
		<path class="st3" d="M280.2,49.1h-83.4c-9.4,0-18,3.1-24.9,8.3c5.9,3.3,10.8,8.4,13.7,15.1c0.1,0.3,0.3,0.6,0.4,0.9
			c5.8,14.5,0.1,30.8-12.8,38.7c11.4,7,17.1,20.4,14.4,33.4h66.8c39.6,0,71.1,9.1,91.2,26.3c17.5,15,26,36.1,26,64.4v1.1
			c0,27.6-8.6,49.5-25.6,65.2c-20.5,18.8-52.9,28.8-93.7,28.8h-69.8c1.2,1.8,2.3,3.7,3.2,5.7c0.1,0.3,0.3,0.6,0.4,0.9
			c5.8,14.5,0.1,30.8-12.8,38.7c13.1,8.1,18.7,24.7,12.6,39.2c-1.3,3.2-3.1,6.1-5.3,8.5c5,2.2,10.5,3.3,16.3,3.3H278
			c136.3,0,215.7-81.1,215.7-190.3v-1.1C493.7,126.9,415.3,49.1,280.2,49.1z"/>
		<path d="M278,432h-81.2c-6.3,0-12.4-1.2-18.1-3.7c-1.3-0.6-2.3-1.7-2.6-3.1c-0.3-1.4,0-2.9,1-4c1.9-2.2,3.4-4.6,4.5-7.3
			c5.1-12.2,0.5-26.7-10.8-33.6c-1.3-0.8-2.1-2.3-2.1-3.8s0.8-3,2.1-3.8c11.3-6.9,15.9-20.9,11-33.2c-0.1-0.2-0.2-0.5-0.3-0.8
			c-0.7-1.7-1.7-3.4-2.8-4.9c-1-1.4-1.1-3.2-0.3-4.7c0.8-1.5,2.3-2.4,4-2.4h69.8c39.7,0,71.1-9.5,90.7-27.6
			c16-14.7,24.2-35.6,24.2-61.9v-1.1c0-27-8-46.9-24.4-61c-19.2-16.5-49.8-25.2-88.3-25.2h-66.8c-1.4,0-2.6-0.6-3.5-1.7
			c-0.9-1.1-1.2-2.4-0.9-3.8c2.3-11.2-2.6-22.7-12.3-28.6c-1.3-0.8-2.1-2.3-2.1-3.8c0-1.6,0.8-3,2.1-3.8c11.3-6.9,15.9-20.9,11-33.2
			c-0.1-0.2-0.2-0.5-0.3-0.8c-2.4-5.6-6.5-10-11.8-13c-1.3-0.7-2.2-2.1-2.3-3.6s0.6-3,1.8-3.9c8-6,17.6-9.2,27.6-9.2h83.4
			c66.2,0,121.7,18.6,160.5,53.7c37.7,34.2,57.6,81.8,57.6,137.8v1.1c0,27.8-5,53.9-14.9,77.5c-9.9,23.7-24.5,44.5-43.3,61.9
			C400.6,412.9,344.6,432,278,432z M187.6,421.9c3,0.8,6,1.1,9.2,1.1H278c64.3,0,118.2-18.3,155.9-53
			c36.2-33.3,55.3-79.2,55.3-132.8v-1.1c0-53.4-18.9-98.7-54.6-131.2c-37.1-33.6-90.5-51.4-154.5-51.4h-83.4c-5.9,0-11.6,1.4-16.8,4
			c4.2,3.5,7.5,8,9.7,13.1c0.1,0.3,0.3,0.7,0.4,1c5.7,14.4,1.7,30.4-9.5,40.4c8.1,7.3,12.6,17.9,12,28.9h61.7
			c40.7,0,73.2,9.5,94.1,27.4c18.6,15.9,27.6,38.1,27.6,67.8v1.1c0,28.9-9.1,52-27.1,68.5c-21.3,19.6-54.8,30-96.8,30h-62.2
			c0.1,0.2,0.1,0.3,0.2,0.4c5.7,14.4,1.7,30.4-9.5,40.4c11.2,10.1,15.2,26.6,9.2,40.9C189.2,418.9,188.4,420.4,187.6,421.9z"/>
	</g>
	<g>
		<g>
			<path class="st4" d="M251.4,405.8c-3.3,0-6.6-1.3-9.2-3.8l-24-24c-5.1-5.1-5.1-13.3,0-18.4c5.1-5.1,13.3-5.1,18.4,0l24,24
				c5.1,5.1,5.1,13.3,0,18.4C258.1,404.5,254.7,405.8,251.4,405.8z"/>
			<path d="M251.4,410.3c-4.7,0-9.1-1.8-12.4-5.1l-24-24c-3.3-3.3-5.1-7.7-5.1-12.4c0-4.7,1.8-9.1,5.1-12.4c6.8-6.8,17.9-6.8,24.7,0
				l24,24c6.8,6.8,6.8,17.9,0,24.7C260.5,408.4,256.1,410.3,251.4,410.3z M227.4,360.3c-2.2,0-4.3,0.8-6,2.5c-1.6,1.6-2.5,3.7-2.5,6
				s0.9,4.4,2.5,6l24,24c1.6,1.6,3.7,2.5,6,2.5s4.4-0.9,6-2.5c3.3-3.3,3.3-8.7,0-12l-24-24C231.7,361.1,229.6,360.3,227.4,360.3z"/>
		</g>
		<g>
			<path class="st4" d="M431.4,185c-3.3,0-6.6-1.3-9.2-3.8l-24-24c-5.1-5.1-5.1-13.3,0-18.4c5.1-5.1,13.3-5.1,18.4,0l24,24
				c5.1,5.1,5.1,13.3,0,18.4C438.1,183.8,434.7,185,431.4,185z"/>
			<path d="M431.4,189.5c-4.7,0-9.1-1.8-12.4-5.1l-24-24c-3.3-3.3-5.1-7.7-5.1-12.4c0-4.7,1.8-9.1,5.1-12.4c6.8-6.8,17.9-6.8,24.7,0
				l24,24c6.8,6.8,6.8,17.9,0,24.7C440.5,187.7,436.1,189.5,431.4,189.5z M407.4,139.6c-2.2,0-4.3,0.8-6,2.5c-1.6,1.6-2.5,3.7-2.5,6
				s0.9,4.4,2.5,6l24,24c1.6,1.6,3.7,2.5,6,2.5s4.4-0.9,6-2.5c3.3-3.3,3.3-8.7,0-12l-24-24C411.7,140.4,409.6,139.6,407.4,139.6z"/>
		</g>
		<g>
			<path class="st5" d="M320.8,124.1c0-3.3,1.3-6.6,3.8-9.2l24-24c5.1-5.1,13.3-5.1,18.4,0c5.1,5.1,5.1,13.3,0,18.4l-24,24
				c-5.1,5.1-13.3,5.1-18.4,0C322,130.7,320.8,127.4,320.8,124.1z"/>
			<path d="M333.7,141.5c-4.5,0-9-1.7-12.4-5.1c-3.3-3.3-5.1-7.7-5.1-12.4c0-4.7,1.8-9.1,5.1-12.4l24-24c6.8-6.8,17.9-6.8,24.7,0
				c6.8,6.8,6.8,17.9,0,24.7l-24,24C342.7,139.8,338.2,141.5,333.7,141.5z M357.8,91.6c-2.2,0-4.3,0.8-6,2.5l-24,24
				c-1.6,1.6-2.5,3.7-2.5,6c0,2.3,0.9,4.4,2.5,6c3.3,3.3,8.7,3.3,12,0l24-24c3.3-3.3,3.3-8.7,0-12C362.1,92.4,359.9,91.6,357.8,91.6
				z"/>
		</g>
		<g>
			<path class="st4" d="M380.6,338.5c0-3.3,1.3-6.6,3.8-9.2l24-24c5.1-5.1,13.3-5.1,18.4,0c5.1,5.1,5.1,13.3,0,18.4l-24,24
				c-5.1,5.1-13.3,5.1-18.4,0C381.9,345.2,380.6,341.9,380.6,338.5z"/>
			<path d="M393.6,356c-4.7,0-9.1-1.8-12.4-5.1c-3.3-3.3-5.1-7.7-5.1-12.4c0-4.7,1.8-9.1,5.1-12.4l24-24c3.3-3.3,7.7-5.1,12.4-5.1
				s9.1,1.8,12.4,5.1c6.8,6.8,6.8,17.9,0,24.7l-24,24C402.7,354.2,398.3,356,393.6,356z M417.6,306c-2.3,0-4.4,0.9-6,2.5l-24,24
				c-1.6,1.6-2.5,3.7-2.5,6c0,2.3,0.9,4.4,2.5,6c1.6,1.6,3.7,2.5,6,2.5c2.3,0,4.4-0.9,6-2.5l24-24c3.3-3.3,3.3-8.7,0-12
				C422,306.9,419.9,306,417.6,306z"/>
		</g>
		<g>
			<path class="st5" d="M319.1,399c-2.3-2.3-3.8-5.6-3.8-9.2l0-34c0-7.2,5.8-13,13-13c7.2,0,13,5.8,13,13l0,34c0,7.2-5.8,13-13,13
				C324.7,402.8,321.4,401.3,319.1,399z"/>
			<path d="M328.3,407.3c-4.7,0-9.1-1.8-12.4-5.1l0,0c-3.3-3.3-5.1-7.7-5.1-12.4l0-34c0-4.7,1.8-9.1,5.1-12.4s7.7-5.1,12.4-5.1
				c9.6,0,17.5,7.8,17.5,17.5l0,34c0,4.7-1.8,9.1-5.1,12.4S332.9,407.3,328.3,407.3z M322.3,395.8c1.6,1.6,3.7,2.5,6,2.5
				c2.3,0,4.4-0.9,6-2.5c1.6-1.6,2.5-3.7,2.5-6l0-34c0-4.7-3.8-8.5-8.5-8.5c-2.3,0-4.4,0.9-6,2.5c-1.6,1.6-2.5,3.7-2.5,6l0,34
				C319.8,392,320.7,394.2,322.3,395.8L322.3,395.8z"/>
		</g>
		<g>
			<path class="st5" d="M461.8,260.5c-2.3,2.3-5.6,3.8-9.2,3.8l-34,0c-7.2,0-13-5.8-13-13c0-7.2,5.8-13,13-13l34,0
				c7.2,0,13,5.8,13,13C465.6,254.9,464.1,258.1,461.8,260.5z"/>
			<path d="M452.6,268.8l-34,0c0,0,0,0,0,0c-4.7,0-9.1-1.8-12.4-5.1c-3.3-3.3-5.1-7.7-5.1-12.4c0-9.6,7.8-17.5,17.5-17.5l34,0
				c0,0,0,0,0,0c4.7,0,9.1,1.8,12.4,5.1c3.3,3.3,5.1,7.7,5.1,12.4c0,4.7-1.8,9.1-5.1,12.4l0,0c0,0,0,0,0,0
				C461.7,266.9,457.3,268.8,452.6,268.8z M418.6,259.8l34,0c2.3,0,4.4-0.9,6-2.5v0c1.6-1.6,2.5-3.7,2.5-6c0-2.3-0.9-4.4-2.5-6
				c-1.6-1.6-3.7-2.5-6-2.5c0,0,0,0,0,0l-34,0c-4.7,0-8.5,3.8-8.5,8.5c0,2.3,0.9,4.4,2.5,6C414.2,258.9,416.3,259.8,418.6,259.8
				C418.6,259.8,418.6,259.8,418.6,259.8z"/>
		</g>
		<g>
			<path class="st4" d="M243.2,121.1c-2.3-2.3-3.8-5.6-3.8-9.2l0-34c0-7.2,5.8-13,13-13c7.2,0,13,5.8,13,13l0,34c0,7.2-5.8,13-13,13
				C248.8,124.9,245.6,123.4,243.2,121.1z"/>
			<path d="M252.4,129.4c-4.7,0-9.1-1.8-12.4-5.1c0,0,0,0,0,0c-3.3-3.3-5.1-7.7-5.1-12.4l0-34c0-9.6,7.8-17.5,17.5-17.5
				c9.6,0,17.5,7.8,17.5,17.5l0,34C269.9,121.5,262,129.4,252.4,129.4z M246.4,117.9c1.6,1.6,3.7,2.5,6,2.5c4.7,0,8.5-3.8,8.5-8.5
				l0-34c0-4.7-3.8-8.5-8.5-8.5c-4.7,0-8.5,3.8-8.5,8.5l0,34C243.9,114.2,244.8,116.3,246.4,117.9z"/>
		</g>
	</g>
</g>
</svg>
