<?xml version="1.0" encoding="utf-8"?>
<!-- Generator: Adobe Illustrator 21.0.0, SVG Export Plug-In . SVG Version: 6.00 Build 0)  -->
<svg version="1.1" xmlns="http://www.w3.org/2000/svg" xmlns:xlink="http://www.w3.org/1999/xlink" x="0px" y="0px"
	 viewBox="0 0 560.2 649.7" style="enable-background:new 0 0 560.2 649.7;" xml:space="preserve">
<style type="text/css">
	.st0{opacity:5.000000e-02;fill:#1F1C1C;enable-background:new    ;}
	.st1{fill:#FFFFFF;}
	.st2{fill:#FCEE23;}
	.st3{stroke:#000000;stroke-width:9;stroke-linecap:round;stroke-linejoin:round;stroke-miterlimit:10;}
</style>
<g id="MR">
	<path d="M238.5,299.1h-29.7l-13.6-36.2c-0.1-0.6-0.4-1.4-0.7-2.4c-0.3-1-0.7-2.2-1.2-3.6l0.2,6.7v35.6h-27.3V197.4h28.1
		c12.4,0,21.6,2.4,27.8,7.3c7.8,6.2,11.7,15.1,11.7,26.6c0,12.3-5.2,20.8-15.7,25.5L238.5,299.1z M193.7,244.5h1.8
		c3.2,0,5.8-1.2,7.9-3.6c2.1-2.4,3.2-5.5,3.2-9.2c0-7.6-4-11.4-11.9-11.4h-1V244.5z"/>
	<path d="M159.4,299.1h-28.7l-2-46.4l-0.9-18.5c-0.3,3.6-0.7,6.9-1.1,10.2c-0.4,3.2-0.9,6.4-1.4,9.4l-8.6,45.3H94.3l-7.4-45.4
		c-0.4-2.6-1-7.2-1.8-13.6c-0.1-1-0.3-2.9-0.6-5.9L83.9,253l-2.4,46.1H52.2l11.9-101.7h34.2l5.7,34.2c0.5,2.8,0.9,5.9,1.3,9.2
		c0.4,3.3,0.7,6.9,1,10.7c0.6-6.5,1.4-12.2,2.4-17.3l7-36.8h33.9L159.4,299.1z"/>
</g>
<g id="LEGS">
	<ellipse id="shadow_1_" class="st0" cx="297" cy="576.6" rx="191.1" ry="12.6"/>
	<path id="front" d="M354.7,439.8l70,11.6l17.5,2.9l7.4,1.2l-1.1,9l-9,70.4l-2.2,17.6l-1.1,8.8l-0.6,4.4l-0.3,2.2l-0.1,1.1l-0.1,0.5
		c-0.1,0.3,0.1-0.5-0.1,0.7c9,9.9,2.5,2.7,4.6,4.9l0.1,0l0.3,0L475,570l-29.5-3.1l1.2-2.9l3.2-8.3l6.5-16.5l25.9-66l6.5-16.5
		l1.6-4.2c1.3-4.3,1.6-9,0.9-13.5c-1.4-9.1-7.2-17.5-15.6-22.1l-36.2-15.8l-0.8-0.4c-24.2,18.1-54.2,31.1-89.4,37.8
		C351.1,439.1,352.9,439.5,354.7,439.8z"/>
	<path id="back" d="M185.1,433.3l-2.5,15.8l-2.6,16.4l-0.6,3.8l-9-1.4l-65.8-10.3l-32.9-5.2l-4.1-0.6l-0.5-0.1l-0.3,0l-0.1,0
		c-2.1,1.1,4.5-2.4-4.6,2.4c-0.1,0.2,0,0.1,0,0.1l0,0.1l-0.2,1l-0.3,2.1l-1.3,8.2L57.9,482l6.8-15.2l3-6.8l1.7,0.8l30.4,13.5
		l60.8,27.1l15.2,6.8l1.9,0.8l0.9,0.4l0.1,0l0.2,0.1l0.3,0.1l0.6,0.2l1.3,0.4c3.4,0.9,7,1.3,10.6,1.1c7.2-0.4,14.3-3.2,20-8
		c2.8-2.4,5.4-5.2,7.3-8.5c1-1.6,1.9-3.3,2.6-5l0.5-1.3l0.2-0.6l0.1-0.2l0.4-0.9l3.4-7.6l6.8-15.2l9.1-20.4h-29.7
		C201.9,443.5,192.4,439.7,185.1,433.3z"/>
</g>
<g id="EGG">
	<g>
		<path class="st1" d="M509,253.1V252c0-26.8-4.7-51.7-13.9-74h0c0,0,0,0,0,0c-0.4-1-0.8-2-1.2-2.9c-0.1-0.2-0.2-0.3-0.2-0.5
			c-1.8-4.1-3.7-8-5.7-11.9c-0.1-0.2-0.2-0.4-0.3-0.5c-2.1-3.8-4.3-7.6-6.6-11.3c-0.1-0.2-0.3-0.4-0.4-0.6
			c-2.3-3.6-4.8-7.1-7.4-10.6c-0.2-0.2-0.3-0.4-0.5-0.7c-0.6-0.8-1.2-1.6-1.8-2.3c-0.1-0.1-0.2-0.2-0.2-0.3c-1.4-1.7-2.7-3.3-4.2-5
			c0,0,0,0-0.1-0.1c-0.6-0.7-1.3-1.4-1.9-2.1c-0.2-0.3-0.5-0.5-0.7-0.8c-0.6-0.7-1.3-1.4-1.9-2.1c-0.2-0.2-0.4-0.4-0.6-0.6
			c-1.4-1.4-2.8-2.9-4.2-4.3c-0.1-0.1-0.1-0.1-0.2-0.2c-0.7-0.6-1.3-1.3-2-1.9c-0.3-0.3-0.6-0.6-0.9-0.8c-0.7-0.6-1.3-1.2-2-1.8
			c-0.3-0.3-0.6-0.5-0.9-0.8c-1.4-1.2-2.7-2.4-4.2-3.6c-0.2-0.1-0.4-0.3-0.5-0.4c-0.7-0.5-1.3-1.1-2-1.6c-0.4-0.3-0.8-0.6-1.2-0.9
			c-0.7-0.5-1.3-1-2-1.5c-0.4-0.3-0.8-0.6-1.2-0.9c-1.2-0.9-2.5-1.8-3.8-2.7c-0.4-0.3-0.8-0.5-1.1-0.8c-0.7-0.5-1.3-0.9-2-1.4
			c-0.5-0.3-1-0.7-1.5-1c-0.7-0.4-1.3-0.9-2-1.3c-0.5-0.3-1.1-0.7-1.6-1c-0.9-0.5-1.7-1.1-2.6-1.6c-0.8-0.5-1.7-1-2.5-1.5
			c-0.6-0.4-1.3-0.7-1.9-1.1c-0.6-0.3-1.2-0.7-1.8-1c-0.6-0.4-1.3-0.7-2-1.1c-0.7-0.4-1.3-0.7-2-1c-0.6-0.3-1.2-0.6-1.8-1
			c-1.2-0.6-2.3-1.2-3.5-1.8c-0.6-0.3-1.2-0.6-1.8-0.9c-0.7-0.4-1.5-0.7-2.2-1c-0.6-0.3-1.3-0.6-1.9-0.9c-0.8-0.3-1.6-0.7-2.4-1
			c-0.6-0.3-1.2-0.5-1.8-0.8c-1.3-0.5-2.6-1.1-3.9-1.6c-0.5-0.2-1.1-0.4-1.7-0.6c-0.9-0.3-1.8-0.7-2.7-1c-0.6-0.2-1.2-0.5-1.8-0.7
			c-0.9-0.3-1.8-0.6-2.7-1c-0.6-0.2-1.1-0.4-1.7-0.6c-1.4-0.5-2.8-0.9-4.2-1.4c-0.5-0.2-1-0.3-1.5-0.5c-1-0.3-2.1-0.6-3.1-0.9
			c-0.6-0.2-1.2-0.3-1.8-0.5c-1-0.3-2-0.6-3.1-0.9c-0.5-0.1-1.1-0.3-1.6-0.4c-1.5-0.4-3-0.8-4.5-1.2c-0.4-0.1-0.8-0.2-1.2-0.3
			c-1.2-0.3-2.4-0.6-3.6-0.8c-0.6-0.1-1.2-0.3-1.7-0.4c-1.1-0.2-2.2-0.5-3.4-0.7c-0.5-0.1-1.1-0.2-1.6-0.3c-1.6-0.3-3.2-0.6-4.8-0.9
			c-0.3-0.1-0.7-0.1-1-0.2c-1.3-0.2-2.7-0.5-4.1-0.7c-0.6-0.1-1.1-0.2-1.7-0.3c-1.2-0.2-2.4-0.4-3.7-0.5c-0.5-0.1-1.1-0.1-1.6-0.2
			c-1.7-0.2-3.4-0.4-5.1-0.6c-0.2,0-0.5,0-0.7-0.1c-1.5-0.2-3.1-0.3-4.6-0.5c-0.6-0.1-1.1-0.1-1.7-0.2c-1.3-0.1-2.6-0.2-3.9-0.3
			c-0.5,0-1.1-0.1-1.6-0.1c-1.8-0.1-3.6-0.3-5.4-0.4c-0.1,0-0.3,0-0.4,0c-1.7-0.1-3.4-0.2-5.1-0.2c-0.6,0-1.1,0-1.7-0.1
			c-1.4,0-2.7-0.1-4.1-0.1c-0.6,0-1.1,0-1.7,0c-1.9,0-3.8-0.1-5.7-0.1h-83.4c-22.9,0-41.5,18.6-41.5,41.5v45.6l0.3,0v0.6
			c6.4-11.2,18.5-18.8,32.3-18.8c15.1,0,28.2,9,34,22c9.9-14,28.5-19.6,44.8-12.7c17.1,7.1,26.1,25.5,21.9,43
			c17.2-4.1,35.5,4.6,42.8,21.4c0.1,0.3,0.3,0.7,0.4,1.1c6.8,17.1,0.1,36.3-15.1,45.6c15.5,9.5,22,29.1,14.8,46.1
			c-7.1,17.1-25.5,26.1-43,21.9c4.1,17.3-4.6,35.5-21.4,42.8c-0.3,0.1-0.7,0.3-1.1,0.4c-16.3,6.5-34.4,0.7-44.2-13
			c-5.8,12.9-18.9,21.9-34,21.9c-13.8,0-25.8-7.5-32.3-18.6v0.5l-0.4-0.1v45.6c0,22.9,18.6,41.5,41.5,41.5h81.2c2.4,0,4.7,0,7.1-0.1
			c0.7,0,1.5,0,2.2-0.1c1.6,0,3.2-0.1,4.8-0.2c0.8,0,1.7-0.1,2.5-0.1c1.5-0.1,3-0.2,4.5-0.3c0.8-0.1,1.6-0.1,2.4-0.2
			c1.6-0.1,3.2-0.3,4.8-0.4c0.6-0.1,1.3-0.1,1.9-0.2c2.2-0.2,4.5-0.4,6.7-0.7c0.2,0,0.4-0.1,0.6-0.1c2-0.2,4-0.5,5.9-0.8
			c0.7-0.1,1.3-0.2,2-0.3c1.5-0.2,3-0.5,4.5-0.7c0.7-0.1,1.4-0.2,2.2-0.4c1.5-0.3,2.9-0.5,4.4-0.8c0.7-0.1,1.3-0.2,2-0.4
			c1.7-0.3,3.3-0.7,5-1c0.4-0.1,0.8-0.2,1.2-0.3c2.1-0.5,4.2-1,6.2-1.5c0.2,0,0.3-0.1,0.5-0.1c1.8-0.5,3.7-1,5.5-1.5
			c0.5-0.1,1-0.3,1.5-0.4c1.5-0.4,3-0.9,4.4-1.3c0.5-0.2,1.1-0.3,1.6-0.5c1.5-0.5,2.9-0.9,4.4-1.4c0.5-0.2,0.9-0.3,1.4-0.5
			c1.8-0.6,3.6-1.3,5.4-1.9c0,0,0.1,0,0.1-0.1c2-0.7,3.9-1.5,5.8-2.3c0,0,0.1,0,0.1-0.1c1.8-0.7,3.5-1.5,5.3-2.2
			c0.3-0.1,0.7-0.3,1-0.4c1.5-0.7,2.9-1.3,4.4-2c0.4-0.2,0.7-0.3,1.1-0.5c1.5-0.7,3-1.5,4.5-2.2c0.2-0.1,0.4-0.2,0.6-0.3
			c5.2-2.7,10.3-5.6,15.1-8.7c0.2-0.1,0.3-0.2,0.5-0.3c1.4-0.9,2.9-1.9,4.3-2.8c0.2-0.1,0.4-0.2,0.5-0.4c6.3-4.3,12.3-9,17.8-13.9
			c0.1-0.1,0.1-0.1,0.2-0.2c1.3-1.2,2.7-2.4,4-3.7c0,0,0.1-0.1,0.1-0.1c5.4-5.2,10.5-10.7,15.2-16.4c0,0,0,0,0.1-0.1
			C495.3,338.9,509,298.4,509,253.1z"/>
		<path d="M293.3,447.9h-81.2c-25.4,0-46-20.6-46-46v-45.6c0-1.2,0.5-2.3,1.3-3.2c0.6-0.8,1.4-1.3,2.4-1.6c2-0.5,4,0.3,5.1,2.1
			c5.9,10.1,16.7,16.4,28.4,16.4c12.8,0,24.6-7.6,29.9-19.3c0.7-1.5,2.1-2.5,3.7-2.6c1.6-0.2,3.2,0.6,4.1,1.9
			c8.8,12.3,24.8,17,38.8,11.4c0.3-0.1,0.7-0.3,0.9-0.4c14.6-6.3,22.5-22.2,18.9-37.6c-0.4-1.5,0.1-3.1,1.2-4.2
			c1.1-1.1,2.7-1.6,4.2-1.2c15.7,3.8,31.6-4.3,37.8-19.3c6.2-14.8,0.6-32.2-13-40.6c-1.3-0.8-2.1-2.3-2.1-3.8c0-1.6,0.8-3,2.1-3.8
			c13.6-8.4,19.2-25.2,13.2-40.1c-0.1-0.3-0.3-0.7-0.4-0.9c-6.3-14.6-22.2-22.6-37.6-18.9c-1.5,0.4-3.1-0.1-4.2-1.2
			c-1.1-1.1-1.6-2.7-1.2-4.2c3.8-15.7-4.3-31.6-19.3-37.8c-14-5.9-30.6-1.2-39.4,11.2c-0.9,1.3-2.5,2-4.1,1.9
			c-1.6-0.2-3-1.2-3.7-2.6c-5.3-11.7-17-19.3-29.9-19.3c-11.7,0-22.6,6.3-28.4,16.5c-1,1.8-3.1,2.6-5.1,2.1c-1.4-0.4-2.4-1.3-3-2.6
			c-0.4-0.7-0.7-1.5-0.7-2.4v-45.6c0-25.4,20.7-46,46-46h83.4c1.9,0,3.8,0,5.7,0.1c0.4,0,0.9,0,1.3,0l0.4,0c1.4,0,2.8,0.1,4.2,0.1
			c0.6,0,1.1,0,1.7,0.1c1.8,0.1,3.5,0.1,5.2,0.2l0.3,0c1.9,0.1,3.7,0.2,5.5,0.4c0.5,0,1.1,0.1,1.6,0.1c1.3,0.1,2.7,0.2,4,0.3
			l1.7,0.2c1.6,0.2,3.1,0.3,4.7,0.5l0.7,0.1c1.7,0.2,3.5,0.4,5.2,0.6l1.6,0.2c1.3,0.2,2.5,0.4,3.7,0.5c0.6,0.1,1.2,0.2,1.7,0.3
			c1.4,0.2,2.8,0.4,4.1,0.7l1,0.2c1.7,0.3,3.3,0.6,4.9,0.9l1.6,0.3c1.1,0.2,2.3,0.5,3.4,0.7c0.6,0.1,1.2,0.3,1.8,0.4
			c1.2,0.3,2.4,0.6,3.7,0.8l1.3,0.3c1.5,0.4,3.1,0.8,4.6,1.2c0.4,0.1,0.7,0.2,1.1,0.3l0.5,0.1c1,0.3,2.1,0.6,3.1,0.9
			c0.6,0.2,1.2,0.4,1.8,0.5c1.1,0.3,2.1,0.6,3.2,1l1.5,0.5c1.4,0.5,2.9,0.9,4.3,1.4c0.4,0.1,0.8,0.3,1.2,0.4l0.5,0.2
			c0.9,0.3,1.8,0.6,2.8,1c0.6,0.2,1.3,0.5,1.9,0.7c0.9,0.3,1.8,0.7,2.7,1l1.7,0.7c1.3,0.5,2.7,1.1,4,1.6c0.4,0.2,0.8,0.3,1.2,0.5
			l0.6,0.3c0.8,0.3,1.6,0.7,2.4,1.1c0.7,0.3,1.3,0.6,1.9,0.9c0.8,0.4,1.5,0.7,2.3,1.1l0.5,0.2c0.5,0.2,0.9,0.4,1.4,0.7
			c1.2,0.6,2.4,1.2,3.6,1.8c0.5,0.2,0.9,0.5,1.4,0.7l0.5,0.3c0.7,0.4,1.4,0.7,2,1.1c0.7,0.4,1.3,0.7,2,1.1c0.6,0.4,1.3,0.7,1.9,1.1
			l0.5,0.3c0.5,0.3,1,0.6,1.5,0.9c0.9,0.5,1.7,1,2.6,1.5c0.9,0.6,1.8,1.1,2.7,1.7c0.5,0.3,1.1,0.7,1.6,1c0.7,0.4,1.4,0.9,2,1.3
			c0.5,0.3,1,0.7,1.5,1l0.3,0.2c0.6,0.4,1.1,0.8,1.7,1.2l1.2,0.8c1.3,0.9,2.6,1.9,3.9,2.8l0.4,0.3c0.3,0.2,0.6,0.5,0.9,0.7
			c0.7,0.5,1.4,1,2,1.6c0.4,0.3,0.8,0.6,1.2,1l0.2,0.2c0.6,0.5,1.2,1,1.9,1.5l0.5,0.4c1.4,1.2,2.9,2.4,4.3,3.7l0.9,0.8
			c0.7,0.6,1.4,1.2,2,1.8l0.9,0.9c0.7,0.6,1.4,1.3,2,1.9l0.2,0.2c1.5,1.4,2.9,2.9,4.4,4.4l0.6,0.6c0.7,0.7,1.3,1.4,2,2.1l0.7,0.8
			c0.7,0.7,1.3,1.5,2,2.2c0,0,0,0,0.1,0.1c0,0,0,0,0,0c1.4,1.6,2.9,3.3,4.3,5.1l0.3,0.3c0.6,0.8,1.2,1.6,1.9,2.4l0.5,0.7
			c2.7,3.5,5.2,7.1,7.6,10.8l0.4,0.6c2.4,3.7,4.7,7.6,6.8,11.5l0.3,0.6c2.1,3.9,4.1,8,5.9,12.2l0.2,0.5c0.4,1,0.9,2,1.3,3
			c0,0,0,0,0,0l0,0c9.4,23.1,14.2,48.5,14.2,75.7v1.1c0,46.1-14,87.8-40.5,120.5c0,0-0.1,0.1-0.1,0.1c-4.8,5.9-10,11.6-15.5,16.8
			l-0.2,0.2c-1.3,1.2-2.7,2.5-4.1,3.7l-0.2,0.2c-5.7,5.1-11.8,9.9-18.3,14.3l-0.5,0.4c-1.4,1-2.9,2-4.4,2.9l-0.5,0.3
			c-5,3.2-10.2,6.2-15.5,8.9l-0.7,0.3c-1.5,0.8-3.1,1.5-4.6,2.3c-0.3,0.2-0.6,0.3-1,0.5l-0.1,0c-1.5,0.7-3,1.4-4.5,2.1l-0.3,0.1
			c-0.2,0.1-0.5,0.2-0.7,0.3c-1.8,0.8-3.6,1.5-5.3,2.3c-0.1,0-0.1,0.1-0.2,0.1c-2,0.8-4,1.6-5.9,2.3c0,0-0.1,0-0.1,0
			c-1.8,0.7-3.6,1.3-5.6,2l-1.4,0.5c-1.5,0.5-3,1-4.5,1.5c-0.6,0.2-1.1,0.3-1.7,0.5c-1.5,0.5-3,0.9-4.5,1.3l-0.5,0.1
			c-0.4,0.1-0.7,0.2-1.1,0.3c-1.9,0.5-3.8,1-5.6,1.5l-0.5,0.1c-2.1,0.5-4.2,1-6.3,1.5l-1.2,0.3c-1.7,0.4-3.4,0.7-5,1.1
			c-0.6,0.1-1.2,0.2-1.9,0.4l-0.1,0c-1.5,0.3-2.9,0.6-4.4,0.8c-0.7,0.1-1.5,0.3-2.2,0.4c-1.5,0.3-3,0.5-4.6,0.7l-0.7,0.1
			c-0.5,0.1-0.9,0.1-1.4,0.2c-2,0.3-4,0.5-6,0.8l-0.6,0.1c-2.1,0.3-4.3,0.5-6.7,0.7c-0.4,0-0.8,0.1-1.2,0.1l-0.7,0.1
			c-1.6,0.1-3.3,0.3-4.9,0.4c-0.8,0.1-1.7,0.1-2.5,0.2c-1.5,0.1-3,0.2-4.6,0.3c-0.8,0-1.7,0.1-2.6,0.1c-1.6,0.1-3.2,0.1-4.9,0.2
			l-0.7,0c-0.5,0-1,0-1.5,0C297.9,447.9,295.6,447.9,293.3,447.9z M175,368v33.9c0,20.4,16.6,37,37,37h81.2c2.2,0,4.5,0,7-0.1
			c0.5,0,1,0,1.4,0l0.8,0c1.6,0,3.2-0.1,4.7-0.2c0.8,0,1.7-0.1,2.5-0.1c1.5-0.1,3-0.2,4.4-0.3c0.8-0.1,1.6-0.1,2.4-0.2
			c1.6-0.1,3.2-0.2,4.8-0.4l0.7-0.1c0.4,0,0.8-0.1,1.2-0.1c2.3-0.2,4.5-0.5,6.6-0.7l0.6-0.1c1.9-0.2,3.9-0.5,5.8-0.8
			c0.4-0.1,0.8-0.1,1.3-0.2l0.7-0.1c1.5-0.2,3-0.5,4.4-0.7c0.7-0.1,1.4-0.2,2.1-0.4c1.4-0.3,2.9-0.5,4.3-0.8l0.2,0
			c0.6-0.1,1.2-0.2,1.8-0.3c1.6-0.3,3.3-0.7,4.9-1l1.2-0.3c2.1-0.5,4.1-0.9,6.1-1.5l0.5-0.1c1.7-0.4,3.6-0.9,5.4-1.4
			c0.3-0.1,0.7-0.2,1-0.3l0.5-0.1c1.5-0.4,2.9-0.8,4.3-1.3c0.5-0.2,1.1-0.3,1.6-0.5c1.4-0.5,2.9-0.9,4.3-1.4l1.3-0.5
			c1.9-0.7,3.6-1.3,5.3-1.9l0.2-0.1c1.9-0.7,3.8-1.4,5.7-2.2c0,0,0,0,0,0c0,0,0.1,0,0.1,0c1.7-0.7,3.4-1.4,5.2-2.2l1-0.4
			c1.5-0.6,2.9-1.3,4.3-2l0.1,0c0.3-0.1,0.6-0.3,0.9-0.4c1.5-0.7,3-1.4,4.4-2.2l0.6-0.3c5.1-2.6,10-5.5,14.8-8.5l0.5-0.3
			c1.4-0.9,2.8-1.8,4.2-2.8l0.5-0.4c6.1-4.2,11.9-8.7,17.4-13.6l0.2-0.1c1.3-1.2,2.6-2.4,3.9-3.6l0.2-0.2c5.2-5,10.2-10.4,14.7-16
			c25.2-31.2,38.5-70.9,38.5-114.9V252c0-26-4.5-50.4-13.5-72.3c0,0,0,0,0-0.1c-0.4-0.9-0.8-1.9-1.2-2.8l-0.2-0.5
			c-1.7-4-3.6-7.9-5.6-11.6l-0.3-0.5c-2-3.7-4.2-7.4-6.4-10.9l-0.4-0.6c-2.3-3.5-4.7-7-7.2-10.3l-0.5-0.7c-0.6-0.7-1.2-1.5-1.8-2.2
			l-0.2-0.3c-1.3-1.7-2.7-3.3-4-4.8v0c0,0-0.1-0.1-0.1-0.1c-0.6-0.6-1.2-1.3-1.8-2l-0.7-0.7c-0.6-0.7-1.2-1.3-1.8-2l-0.5-0.6
			c-1.4-1.5-2.8-2.8-4.1-4.1l-0.1-0.1c0,0-0.1-0.1-0.1-0.1c-0.6-0.6-1.3-1.2-1.9-1.8l-0.9-0.8c-0.6-0.6-1.3-1.2-1.9-1.7l-0.9-0.8
			c-1.3-1.2-2.7-2.3-4-3.5l-0.5-0.4c-0.6-0.5-1.2-0.9-1.8-1.4l-0.2-0.2c-0.4-0.3-0.8-0.6-1.1-0.9c-0.6-0.5-1.3-1-1.9-1.5
			c-0.3-0.2-0.6-0.4-0.9-0.6l-0.4-0.3c-1.2-0.9-2.4-1.8-3.7-2.7l-1.1-0.8c-0.5-0.4-1.1-0.7-1.6-1.1l-0.3-0.2c-0.5-0.3-1-0.6-1.5-1
			c-0.6-0.4-1.3-0.8-1.9-1.3c-0.5-0.3-1-0.7-1.6-1c-0.9-0.5-1.7-1.1-2.6-1.6c-0.8-0.5-1.6-1-2.5-1.5c-0.5-0.3-0.9-0.5-1.4-0.8
			l-0.5-0.3c-0.6-0.3-1.2-0.7-1.8-1c-0.6-0.3-1.3-0.7-1.9-1c-0.6-0.3-1.3-0.7-1.9-1l-0.5-0.3c-0.4-0.2-0.8-0.4-1.3-0.7
			c-1.1-0.6-2.3-1.2-3.5-1.7c-0.4-0.2-0.9-0.4-1.3-0.6l-0.5-0.2c-0.7-0.3-1.5-0.7-2.2-1c-0.6-0.3-1.2-0.6-1.9-0.8
			c-0.8-0.3-1.5-0.7-2.3-1l-0.6-0.3c-0.4-0.2-0.7-0.3-1.1-0.5c-1.3-0.5-2.5-1-3.8-1.6l-1.6-0.6c-0.9-0.3-1.7-0.7-2.6-1
			c-0.6-0.2-1.2-0.4-1.8-0.7c-0.9-0.3-1.8-0.6-2.7-0.9l-0.5-0.2c-0.4-0.1-0.7-0.3-1.1-0.4c-1.4-0.5-2.7-0.9-4.1-1.4l-1.4-0.4
			c-1-0.3-2-0.6-3-0.9c-0.6-0.2-1.2-0.3-1.8-0.5c-1-0.3-2-0.6-3-0.8l-0.6-0.2c-0.3-0.1-0.7-0.2-1-0.3c-1.5-0.4-3-0.8-4.5-1.1
			l-1.2-0.3c-1.2-0.3-2.3-0.6-3.5-0.8c-0.6-0.1-1.1-0.2-1.7-0.4c-1.1-0.2-2.2-0.5-3.3-0.7l-1.6-0.3c-1.6-0.3-3.2-0.6-4.8-0.9l-1-0.2
			c-1.3-0.2-2.6-0.4-4-0.7c-0.6-0.1-1.1-0.2-1.7-0.3c-1.2-0.2-2.4-0.4-3.6-0.5l-1.6-0.2c-1.7-0.2-3.4-0.4-5.1-0.6l-0.7-0.1
			c-1.5-0.2-3-0.3-4.5-0.5l-1.7-0.2c-1.3-0.1-2.5-0.2-3.8-0.3c-0.6,0-1.1-0.1-1.6-0.1c-1.8-0.1-3.6-0.2-5.3-0.3l-0.3,0
			c-1.7-0.1-3.4-0.2-5.1-0.2c-0.6,0-1.1,0-1.7-0.1c-1.4,0-2.7-0.1-4.1-0.1l-1.7,0c-1.9,0-3.7-0.1-5.6-0.1h-83.4
			c-20.4,0-37,16.6-37,37v33.9c7.6-6.9,17.6-10.9,28.1-10.9c14.1,0,27.1,7.1,34.8,18.6c11.8-11.8,30-15.6,45.7-9
			c17,7.1,27,24,25.6,41.8c17.5-1.4,34.3,8.5,41.5,25c0.2,0.4,0.3,0.8,0.5,1.2c6.8,16.9,1.8,35.8-11.6,47.3
			c13.5,11.6,18.4,31.1,11.3,47.9c-7.1,17-24,27-41.8,25.6c1.4,17.5-8.4,34.3-25,41.5c-0.4,0.2-0.8,0.3-1.2,0.5
			c-15.8,6.3-33.4,2.5-45.1-9.3c-7.7,11.4-20.7,18.5-34.7,18.5C192.6,379,182.6,374.9,175,368z M394.8,425.1L394.8,425.1
			L394.8,425.1z"/>
	</g>
	<g>
		<g>
			<circle class="st2" cx="404.7" cy="233.9" r="72.7"/>
			<path d="M404.7,311.1c-42.5,0-77.2-34.6-77.2-77.2c0-42.5,34.6-77.2,77.2-77.2c42.5,0,77.2,34.6,77.2,77.2
				C481.8,276.5,447.2,311.1,404.7,311.1z M404.7,165.8c-37.6,0-68.2,30.6-68.2,68.2c0,37.6,30.6,68.2,68.2,68.2
				s68.2-30.6,68.2-68.2C472.8,196.3,442.2,165.8,404.7,165.8z"/>
		</g>
		<path class="st1" d="M456.2,240.9c-3.9,0-7-3.1-7-7c0-24.5-20-44.5-44.5-44.5c-3.9,0-7-3.1-7-7s3.1-7,7-7
			c32.3,0,58.5,26.2,58.5,58.5C463.2,237.8,460,240.9,456.2,240.9z"/>
		<g>
			<path class="st2" d="M341.8,275.9C341.8,275.9,341.8,276,341.8,275.9c3.5,0.1,6.3,2.8,6.6,6.2v68.6c0,6.9,5.6,12.4,12.4,12.4
				c6.9,0,12.4-5.6,12.4-12.4v-40.9c0-3.4,2.8-6.2,6.2-6.2c3.4,0,6.2,2.8,6.2,6.2v0.8v20.1c0,6.9,5.6,12.4,12.4,12.4
				c6.9,0,12.4-5.6,12.4-12.4v-53"/>
			<path d="M360.7,367.6c-9.3,0-16.9-7.6-16.9-16.9v-68.4c-0.1-1-1-1.8-2-1.8c-0.8,0-1.7-0.3-2.4-0.7c0,0-0.1-0.1-0.3-0.2
				c-2-1.5-2.4-4.3-0.9-6.3c1.1-1.5,2.9-2.1,4.5-1.7c5.4,0.4,9.8,4.8,10.1,10.3c0,0.1,0,0.2,0,0.3v68.6c0,4.4,3.6,7.9,7.9,7.9
				c4.4,0,7.9-3.6,7.9-7.9v-40.9c0-5.9,4.8-10.7,10.7-10.7c5.9,0,10.7,4.8,10.7,10.7v20.9c0,4.4,3.6,7.9,7.9,7.9
				c4.4,0,7.9-3.6,7.9-7.9v-53c0-2.5,2-4.5,4.5-4.5s4.5,2,4.5,4.5v53c0,9.3-7.6,16.9-16.9,16.9s-16.9-7.6-16.9-16.9v-20.9
				c0-0.9-0.8-1.7-1.7-1.7c-0.9,0-1.7,0.8-1.7,1.7v40.9C377.7,360,370.1,367.6,360.7,367.6z M344.4,272.3
				C344.4,272.3,344.4,272.3,344.4,272.3C344.4,272.3,344.4,272.3,344.4,272.3z"/>
		</g>
	</g>
	<g>
		<path class="st3" d="M211.6,155.9c4.1-5.8,9.7-10.1,16-12.8c-6.6-5.7-15.1-9.2-24.5-9.2c-4.5,0-8.8,0.8-12.8,2.3
			C199.8,139.6,207.5,146.8,211.6,155.9z"/>
		<path class="st3" d="M211.6,352.6c-4.1,9.1-11.8,16.2-21.2,19.6c4,1.5,8.3,2.3,12.8,2.3c9.4,0,17.9-3.5,24.4-9.1
			C221.3,362.7,215.7,358.3,211.6,352.6z"/>
		<path class="st3" d="M332,254.2c15.2-9.3,21.9-28.5,15.1-45.6c-0.1-0.3-0.3-0.7-0.4-1.1c-7.3-16.8-25.5-25.6-42.8-21.4
			c4.2-17.5-4.8-35.9-21.9-43c-9-3.8-18.6-3.8-27.2-0.6c0.5,0.2,1.1,0.4,1.6,0.6c17.1,7.1,26.1,25.5,21.9,43
			c17.2-4.1,35.5,4.6,42.8,21.4c0.1,0.3,0.3,0.7,0.4,1.1c6.8,17.1,0.1,36.3-15.1,45.6c15.5,9.5,22,29.1,14.8,46.1
			c-7.1,17.1-25.5,26.1-43,21.9c4.1,17.3-4.6,35.5-21.4,42.8c-0.3,0.1-0.7,0.3-1.1,0.4c-0.4,0.1-0.7,0.3-1.1,0.4
			c8.3,3,17.7,3.1,26.6-0.4c0.3-0.1,0.7-0.3,1.1-0.4c16.8-7.3,25.6-25.5,21.4-42.8c17.5,4.2,35.9-4.8,43-21.9
			C354,283.3,347.5,263.7,332,254.2z"/>
		<polyline class="st3" points="211.6,352.6 237.2,352.6 222.7,370.1 		"/>
		<polyline class="st3" points="211.6,155.9 237.2,155.9 227.7,143.1 		"/>
	</g>
</g>
</svg>
